<svg width="1280" height="895" viewBox="0 0 1280 895" fill="none" xmlns="http://www.w3.org/2000/svg">
<path d="M1001.09 -388.608C1149.11 -271.551 1274.13 -127.364 1320.14 41.6368C1366.27 210.754 1333.51 404.801 1214.64 505.015C1095.78 605.113 890.679 611.495 702.335 689.897C513.869 768.299 342.036 918.839 228.009 890.966C114.104 862.976 57.8849 656.458 -38.2882 480.827C-134.583 305.197 -270.832 160.221 -289.499 -4.07556C-308.044 -168.489 -209.129 -352.338 -56.2547 -469.015C96.7409 -585.809 303.695 -635.661 492.745 -615.625C681.795 -595.473 853.063 -505.664 1001.09 -388.608Z" fill="url(#paint0_linear_547_3089)"/>
<defs>
<linearGradient id="paint0_linear_547_3089" x1="522.696" y1="-620.193" x2="804.063" y2="770.92" gradientUnits="userSpaceOnUse">
<stop offset="0.163462" stop-color="#E8F2F8"/>
<stop offset="0.456731" stop-color="#78BFF7"/>
<stop offset="1" stop-color="#A7F0F7" stop-opacity="0.38"/>
</linearGradient>
</defs>
</svg>
