<svg width="1280" height="615" viewBox="0 0 1280 615" fill="none" xmlns="http://www.w3.org/2000/svg">
<path d="M703.535 1637.59C548.369 1632.15 310.039 1420.68 75.4336 1289.81C-159.314 1158.86 -390.541 1108.52 -447.185 1009.77C-503.747 911.202 -385.93 764.237 -322.335 637.57C-258.801 511.004 -249.753 404.852 -186.572 308.746C-123.473 212.452 -6.36186 126.405 127.82 145.223C261.86 163.955 412.972 287.552 632.699 409.531C852.426 531.511 1140.71 651.974 1213.81 790.419C1287.06 928.952 1145.21 1085.65 1038.1 1264.12C930.927 1442.7 858.844 1643.11 703.535 1637.59Z" fill="url(#paint0_linear_547_3273)"/>
<defs>
<linearGradient id="paint0_linear_547_3273" x1="764.543" y1="1075.63" x2="-304.71" y2="506.647" gradientUnits="userSpaceOnUse">
<stop stop-color="#82C5F7"/>
<stop offset="1" stop-color="#D3F2F8"/>
</linearGradient>
</defs>
</svg>
